<svg width="352" height="305" viewBox="0 0 352 305" fill="none" xmlns="http://www.w3.org/2000/svg">
<path d="M93.2889 629.104C148.893 509.479 161.622 384.582 165.934 104.19L186.267 104.247C189.5 375.802 198.07 506.81 253.776 629.556L93.2889 629.104Z" fill="url(#paint0_linear_8_278)"/>
<path d="M152.991 628.63C174.024 449.609 171.972 326.799 166.109 104.19L186.48 104.248C177.5 333.937 174.311 457.885 196.644 628.753L152.991 628.63Z" fill="url(#paint1_linear_8_278)"/>
<path fill-rule="evenodd" clip-rule="evenodd" d="M139.327 276.068L139.841 93.7539L140.483 93.7557L139.969 276.069L139.327 276.068Z" fill="url(#paint2_linear_8_278)"/>
<path fill-rule="evenodd" clip-rule="evenodd" d="M156.504 179.272L156.788 78.486L157.43 78.4878L157.146 179.274L156.504 179.272Z" fill="url(#paint3_linear_8_278)"/>
<path fill-rule="evenodd" clip-rule="evenodd" d="M202.155 153.723L202.355 82.4662L202.997 82.468L202.797 153.724L202.155 153.723Z" fill="url(#paint4_linear_8_278)"/>
<path fill-rule="evenodd" clip-rule="evenodd" d="M213.152 222.145L213.152 100.174L213.794 100.174L213.794 222.145L213.152 222.145Z" fill="url(#paint5_linear_8_278)"/>
<path fill-rule="evenodd" clip-rule="evenodd" d="M201.578 127.976C201.849 127.713 201.908 127.522 201.908 127.401C201.908 127.28 201.85 127.089 201.581 126.825C201.311 126.559 200.878 126.272 200.262 125.978C199.033 125.393 197.213 124.847 194.912 124.38C190.32 123.448 183.946 122.857 176.885 122.837C169.823 122.817 163.446 123.372 158.849 124.278C156.546 124.732 154.723 125.268 153.49 125.846C152.873 126.136 152.438 126.421 152.166 126.685C151.895 126.948 151.836 127.139 151.836 127.26C151.836 127.381 151.894 127.573 152.163 127.837C152.433 128.103 152.866 128.39 153.482 128.684C154.711 129.269 156.531 129.815 158.832 130.282C163.424 131.214 169.798 131.805 176.859 131.825C183.921 131.844 190.298 131.289 194.895 130.384C197.198 129.93 199.022 129.394 200.254 128.815C200.871 128.525 201.306 128.24 201.578 127.976ZM176.858 132.466C191.039 132.506 202.542 130.24 202.55 127.403C202.558 124.567 191.068 122.235 176.886 122.195C162.705 122.155 151.202 124.422 151.194 127.259C151.186 130.095 162.676 132.427 176.858 132.466Z" fill="url(#paint6_linear_8_278)"/>
<path fill-rule="evenodd" clip-rule="evenodd" d="M213.478 143.938C213.912 143.51 214.06 143.145 214.061 142.843C214.062 142.54 213.915 142.175 213.484 141.744C213.052 141.311 212.379 140.863 211.456 140.415C209.611 139.522 206.899 138.697 203.496 137.995C196.699 136.592 187.277 135.706 176.848 135.676C166.419 135.647 156.993 136.481 150.188 137.845C146.781 138.528 144.064 139.337 142.215 140.22C141.288 140.662 140.613 141.107 140.178 141.537C139.745 141.966 139.596 142.33 139.595 142.633C139.594 142.935 139.741 143.301 140.172 143.732C140.605 144.164 141.277 144.613 142.201 145.06C144.046 145.954 146.757 146.778 150.161 147.481C156.958 148.883 166.379 149.77 176.808 149.799C187.238 149.828 196.664 148.995 203.468 147.631C206.876 146.948 209.592 146.138 211.442 145.255C212.368 144.813 213.043 144.368 213.478 143.938ZM176.807 150.441C197.724 150.5 214.691 147.099 214.703 142.844C214.715 138.59 197.768 135.093 176.85 135.034C155.932 134.975 138.965 138.377 138.953 142.631C138.941 146.885 155.889 150.382 176.807 150.441Z" fill="url(#paint7_linear_8_278)"/>
<path fill-rule="evenodd" clip-rule="evenodd" d="M230.996 169.8C231.683 169.122 231.965 168.498 231.966 167.929C231.968 167.361 231.689 166.735 231.007 166.053C230.322 165.369 229.279 164.678 227.876 163.999C225.075 162.642 220.978 161.398 215.861 160.342C205.64 158.233 191.485 156.902 175.826 156.858C160.168 156.814 146.006 158.065 135.772 160.117C130.65 161.144 126.546 162.364 123.737 163.705C122.331 164.377 121.283 165.062 120.595 165.742C119.909 166.421 119.627 167.045 119.625 167.613C119.623 168.181 119.902 168.807 120.585 169.489C121.269 170.173 122.313 170.865 123.715 171.544C126.516 172.901 130.614 174.144 135.73 175.2C145.952 177.309 160.106 178.64 175.765 178.684C191.424 178.728 205.586 177.477 215.819 175.425C220.941 174.399 225.045 173.178 227.854 171.837C229.26 171.166 230.308 170.48 230.996 169.8ZM175.763 179.326C207.14 179.415 232.59 174.313 232.608 167.931C232.626 161.549 207.205 156.304 175.828 156.216C144.451 156.128 119.001 161.229 118.983 167.611C118.965 173.993 144.386 179.238 175.763 179.326Z" fill="url(#paint8_linear_8_278)"/>
<path fill-rule="evenodd" clip-rule="evenodd" d="M260.376 223.817C261.483 222.722 261.986 221.665 261.989 220.654C261.992 219.642 261.494 218.583 260.394 217.482C259.292 216.379 257.631 215.283 255.434 214.217C251.043 212.088 244.645 210.146 236.684 208.502C220.773 205.215 198.757 203.143 174.412 203.074C150.067 203.006 128.039 204.954 112.11 208.151C104.14 209.75 97.7311 211.656 93.3281 213.761C91.1251 214.814 89.4583 215.901 88.35 216.997C87.2434 218.092 86.7398 219.149 86.737 220.16C86.7341 221.172 87.2317 222.231 88.3322 223.332C89.4342 224.435 91.0949 225.531 93.292 226.597C97.6831 228.726 104.082 230.668 112.042 232.313C127.953 235.599 149.969 237.671 174.314 237.74C198.659 237.808 220.687 235.86 236.616 232.663C244.586 231.064 250.995 229.158 255.398 227.053C257.601 226 259.268 224.913 260.376 223.817ZM174.312 238.382C223.062 238.519 262.603 230.583 262.631 220.656C262.659 210.728 223.163 202.57 174.414 202.432C125.665 202.295 86.123 210.231 86.095 220.158C86.0671 230.086 125.563 238.244 174.312 238.382Z" fill="url(#paint9_linear_8_278)"/>
<path fill-rule="evenodd" clip-rule="evenodd" d="M346.924 323.59C349.188 321.349 350.301 319.105 350.307 316.874C350.314 314.644 349.213 312.393 346.962 310.14C344.708 307.884 341.348 305.675 336.961 303.547C328.191 299.293 315.452 295.432 299.654 292.168C268.07 285.642 224.393 281.533 176.117 281.397C127.84 281.261 84.1414 285.124 52.5205 291.472C36.7047 294.647 23.9443 298.437 15.1499 302.641C10.7513 304.744 7.37873 306.934 5.11283 309.177C2.84849 311.418 1.73528 313.662 1.729 315.893C1.72272 318.123 2.82327 320.374 5.07495 322.628C7.32819 324.883 10.6884 327.093 15.0751 329.22C23.8457 333.474 36.5845 337.336 52.3822 340.6C83.9668 347.125 127.643 351.234 175.92 351.37C224.196 351.506 267.895 347.643 299.516 341.296C315.332 338.121 328.092 334.331 336.887 330.126C341.285 328.024 344.658 325.833 346.924 323.59ZM175.918 352.012C272.53 352.284 350.894 336.553 350.949 316.876C351.005 297.199 272.73 281.028 176.119 280.755C79.5067 280.483 1.14246 296.214 1.08705 315.891C1.03164 335.568 79.3061 351.74 175.918 352.012Z" fill="url(#paint10_linear_8_278)"/>
<path fill-rule="evenodd" clip-rule="evenodd" d="M188.5 108.975C188.5 108.975 188.499 108.976 188.498 108.978C188.499 108.976 188.5 108.975 188.5 108.975ZM188.398 109.068C188.294 108.989 188.123 108.892 187.867 108.785C187.281 108.541 186.395 108.306 185.252 108.103C182.976 107.698 179.806 107.439 176.286 107.429C172.766 107.419 169.594 107.66 167.316 108.052C166.172 108.249 165.285 108.479 164.698 108.72C164.441 108.825 164.27 108.922 164.165 109C164.269 109.079 164.44 109.176 164.696 109.283C165.282 109.527 166.168 109.762 167.311 109.965C169.587 110.37 172.757 110.629 176.277 110.639C179.797 110.649 182.969 110.408 185.247 110.016C186.391 109.819 187.279 109.589 187.865 109.348C188.122 109.243 188.293 109.146 188.398 109.068ZM164.064 108.906C164.064 108.906 164.065 108.907 164.066 108.91C164.064 108.907 164.063 108.906 164.064 108.906ZM164.063 109.093C164.063 109.093 164.064 109.092 164.065 109.09C164.064 109.092 164.063 109.093 164.063 109.093ZM188.497 109.158C188.499 109.161 188.5 109.162 188.499 109.162C188.499 109.162 188.499 109.161 188.497 109.158ZM176.275 111.281C183.366 111.301 189.117 110.311 189.12 109.07C189.124 107.829 183.379 106.807 176.288 106.787C169.197 106.767 163.446 107.757 163.443 108.998C163.439 110.239 169.184 111.261 176.275 111.281Z" fill="url(#paint11_linear_8_278)"/>
<path fill-rule="evenodd" clip-rule="evenodd" d="M189.768 110.625C189.768 110.625 189.767 110.626 189.766 110.628C189.767 110.626 189.767 110.625 189.768 110.625ZM189.726 110.677C189.716 110.666 189.703 110.653 189.687 110.639C189.572 110.536 189.365 110.407 189.038 110.265C188.389 109.984 187.411 109.715 186.152 109.482C183.646 109.019 180.156 108.724 176.283 108.713C172.409 108.702 168.918 108.978 166.409 109.427C165.15 109.652 164.169 109.916 163.519 110.193C163.191 110.333 162.984 110.461 162.868 110.563C162.852 110.578 162.839 110.59 162.828 110.601C162.839 110.612 162.852 110.624 162.868 110.639C162.983 110.741 163.19 110.871 163.517 111.013C164.165 111.294 165.144 111.563 166.403 111.795C168.909 112.258 172.398 112.554 176.272 112.565C180.146 112.576 183.637 112.3 186.146 111.851C187.405 111.625 188.385 111.362 189.036 111.084C189.363 110.945 189.571 110.816 189.687 110.714C189.703 110.7 189.716 110.687 189.726 110.677ZM162.788 110.549C162.788 110.549 162.788 110.55 162.789 110.552C162.788 110.55 162.787 110.549 162.788 110.549ZM162.787 110.653C162.787 110.653 162.788 110.651 162.789 110.649C162.788 110.651 162.787 110.653 162.787 110.653ZM189.766 110.725C189.767 110.727 189.767 110.729 189.767 110.729C189.767 110.729 189.767 110.727 189.766 110.725ZM176.27 113.207C184.07 113.229 190.396 112.097 190.4 110.679C190.404 109.26 184.084 108.093 176.285 108.071C168.485 108.049 162.159 109.181 162.155 110.599C162.151 112.017 168.47 113.185 176.27 113.207Z" fill="url(#paint12_linear_8_278)"/>
<path fill-rule="evenodd" clip-rule="evenodd" d="M191.681 112.9C191.681 112.9 191.681 112.901 191.68 112.903C191.68 112.901 191.681 112.9 191.681 112.9ZM191.664 112.929C191.649 112.907 191.621 112.874 191.569 112.828C191.429 112.704 191.184 112.554 190.808 112.392C190.061 112.072 188.941 111.768 187.509 111.506C184.654 110.984 180.682 110.651 176.277 110.638C171.871 110.626 167.898 110.937 165.04 111.443C163.606 111.697 162.484 111.995 161.736 112.311C161.359 112.47 161.113 112.618 160.972 112.742C160.92 112.787 160.892 112.821 160.876 112.842C160.892 112.864 160.92 112.897 160.971 112.942C161.112 113.067 161.357 113.217 161.733 113.378C162.479 113.698 163.599 114.002 165.032 114.265C167.887 114.787 171.858 115.12 176.264 115.132C180.67 115.145 184.643 114.834 187.501 114.328C188.935 114.074 190.057 113.776 190.805 113.46C191.182 113.301 191.427 113.152 191.569 113.029C191.62 112.983 191.649 112.95 191.664 112.929ZM160.86 112.813C160.86 112.813 160.86 112.814 160.861 112.816C160.86 112.814 160.859 112.813 160.86 112.813ZM160.859 112.871C160.859 112.871 160.86 112.87 160.861 112.868C160.86 112.87 160.859 112.871 160.859 112.871ZM191.68 112.955C191.681 112.957 191.681 112.958 191.681 112.958C191.681 112.958 191.68 112.957 191.68 112.955ZM176.262 115.774C185.126 115.799 192.314 114.526 192.319 112.931C192.323 111.335 185.142 110.022 176.278 109.997C167.415 109.972 160.226 111.245 160.221 112.84C160.217 114.436 167.399 115.749 176.262 115.774Z" fill="url(#paint13_linear_8_278)"/>
<path fill-rule="evenodd" clip-rule="evenodd" d="M194.876 117.729C194.876 117.729 194.876 117.73 194.875 117.731C194.876 117.73 194.876 117.729 194.876 117.729ZM194.864 117.753C194.847 117.726 194.807 117.676 194.719 117.603C194.536 117.453 194.227 117.28 193.768 117.097C192.856 116.735 191.498 116.394 189.774 116.102C186.335 115.519 181.558 115.147 176.264 115.132C170.97 115.118 166.191 115.462 162.749 116.026C161.023 116.309 159.663 116.642 158.749 116.999C158.289 117.179 157.979 117.35 157.795 117.499C157.706 117.571 157.667 117.621 157.649 117.648C157.666 117.675 157.706 117.725 157.795 117.797C157.977 117.947 158.286 118.121 158.745 118.303C159.657 118.665 161.015 119.006 162.74 119.299C166.179 119.882 170.956 120.253 176.25 120.268C181.544 120.283 186.322 119.938 189.764 119.375C191.491 119.092 192.851 118.759 193.765 118.402C194.225 118.222 194.535 118.05 194.718 117.901C194.807 117.829 194.847 117.78 194.864 117.753ZM157.638 117.624C157.638 117.624 157.638 117.625 157.638 117.627C157.638 117.625 157.637 117.624 157.638 117.624ZM157.637 117.671C157.637 117.671 157.638 117.671 157.638 117.669C157.638 117.671 157.637 117.671 157.637 117.671ZM194.875 117.774C194.876 117.775 194.876 117.776 194.876 117.776C194.876 117.776 194.876 117.775 194.875 117.774ZM176.248 120.91C186.884 120.94 195.51 119.527 195.515 117.754C195.52 115.982 186.902 114.52 176.266 114.491C165.63 114.461 157.003 115.873 156.998 117.646C156.993 119.419 165.612 120.88 176.248 120.91Z" fill="url(#paint14_linear_8_278)"/>
<path d="M164.544 104.965L161.529 99.1872C161.306 98.7598 161.617 98.2483 162.099 98.2483H190.794C191.276 98.2483 191.586 98.7598 191.363 99.1872L188.349 104.965C188.238 105.177 188.019 105.31 187.78 105.31H165.113C164.874 105.31 164.654 105.177 164.544 104.965Z" fill="#EDEFF0"/>
<path d="M143.02 107.878C141.094 106.227 143.02 84.1254 160.995 72.2493H162.92V99.5323H158.106C154.575 99.5323 144.946 109.528 143.02 107.878Z" fill="url(#paint15_linear_8_278)"/>
<path d="M209.783 107.878C211.709 106.227 209.783 84.1254 191.808 72.2493H189.883V99.5323H194.697C198.228 99.5323 207.857 109.528 209.783 107.878Z" fill="url(#paint16_linear_8_278)"/>
<path d="M161.637 30.2014V99.5322H191.167V30.2014C191.167 22.498 181.858 0.0296783 176.402 0.0296783C170.624 0.0296783 161.637 22.498 161.637 30.2014Z" fill="url(#paint17_linear_8_278)"/>
<path fill-rule="evenodd" clip-rule="evenodd" d="M176.32 22.2185C173.734 22.2143 171.096 22.8125 167.633 24.0665C167.3 24.1872 166.931 24.0148 166.811 23.6815C166.69 23.3481 166.862 22.98 167.196 22.8593C170.727 21.5806 173.525 20.93 176.322 20.9346C179.119 20.9392 181.865 21.599 185.29 22.8605C185.623 22.983 185.793 23.352 185.67 23.6847C185.548 24.0174 185.179 24.1878 184.846 24.0653C181.49 22.8292 178.905 22.2227 176.32 22.2185Z" fill="url(#paint18_linear_8_278)"/>
<path d="M172.229 107.878C172.229 111.087 174.155 113.334 176.402 113.334C178.328 113.334 180.313 111.408 180.253 107.878C179.961 90.5274 178.328 71.9283 176.402 71.9283C174.476 71.9283 173.393 83.7147 172.229 107.878Z" fill="url(#paint19_linear_8_278)"/>
<defs>
<linearGradient id="paint0_linear_8_278" x1="175.011" y1="104.216" x2="174.206" y2="579.471" gradientUnits="userSpaceOnUse">
<stop stop-color="#7D2042" stop-opacity="0.52"/>
<stop offset="1" stop-color="#FFC0B0" stop-opacity="0"/>
</linearGradient>
<linearGradient id="paint1_linear_8_278" x1="176.295" y1="104.219" x2="174.818" y2="628.691" gradientUnits="userSpaceOnUse">
<stop offset="0.119792" stop-color="#B271E4" stop-opacity="0.31"/>
<stop offset="0.875" stop-color="#FF708A" stop-opacity="0"/>
</linearGradient>
<linearGradient id="paint2_linear_8_278" x1="140.483" y1="93.7557" x2="139.969" y2="276.069" gradientUnits="userSpaceOnUse">
<stop stop-color="#FAFAFA" stop-opacity="0"/>
<stop offset="0.494792" stop-color="#C74646"/>
<stop offset="1" stop-color="#FAFAFA" stop-opacity="0"/>
</linearGradient>
<linearGradient id="paint3_linear_8_278" x1="157.43" y1="78.4878" x2="157.146" y2="179.274" gradientUnits="userSpaceOnUse">
<stop stop-color="#FAFAFA" stop-opacity="0"/>
<stop offset="0.494792" stop-color="#C74646"/>
<stop offset="1" stop-color="#FAFAFA" stop-opacity="0"/>
</linearGradient>
<linearGradient id="paint4_linear_8_278" x1="202.997" y1="82.468" x2="202.797" y2="153.724" gradientUnits="userSpaceOnUse">
<stop stop-color="#FAFAFA" stop-opacity="0"/>
<stop offset="0.494792" stop-color="#C74646"/>
<stop offset="1" stop-color="#FAFAFA" stop-opacity="0"/>
</linearGradient>
<linearGradient id="paint5_linear_8_278" x1="213.794" y1="100.174" x2="213.794" y2="222.145" gradientUnits="userSpaceOnUse">
<stop stop-color="#FAFAFA" stop-opacity="0"/>
<stop offset="0.494792" stop-color="#C74646"/>
<stop offset="1" stop-color="#FAFAFA" stop-opacity="0"/>
</linearGradient>
<linearGradient id="paint6_linear_8_278" x1="176.575" y1="132.466" x2="176.604" y2="122.195" gradientUnits="userSpaceOnUse">
<stop stop-color="#AB5A46"/>
<stop offset="1" stop-color="#E99682"/>
</linearGradient>
<linearGradient id="paint7_linear_8_278" x1="176.39" y1="150.44" x2="176.434" y2="135.033" gradientUnits="userSpaceOnUse">
<stop stop-color="#AB5A46"/>
<stop offset="1" stop-color="#E99682"/>
</linearGradient>
<linearGradient id="paint8_linear_8_278" x1="175.139" y1="179.324" x2="175.204" y2="156.214" gradientUnits="userSpaceOnUse">
<stop stop-color="#5A46AB"/>
<stop offset="1" stop-color="#E782E9"/>
</linearGradient>
<linearGradient id="paint9_linear_8_278" x1="173.342" y1="238.379" x2="173.444" y2="202.43" gradientUnits="userSpaceOnUse">
<stop stop-color="#5A46AB"/>
<stop offset="1" stop-color="#E782E9"/>
</linearGradient>
<linearGradient id="paint10_linear_8_278" x1="173.996" y1="352.006" x2="174.196" y2="280.75" gradientUnits="userSpaceOnUse">
<stop stop-color="#5A46AB"/>
<stop offset="1" stop-color="#E782E9"/>
</linearGradient>
<linearGradient id="paint11_linear_8_278" x1="176.134" y1="111.28" x2="176.147" y2="106.787" gradientUnits="userSpaceOnUse">
<stop stop-color="#AB5A46"/>
<stop offset="1" stop-color="#E99682"/>
</linearGradient>
<linearGradient id="paint12_linear_8_278" x1="176.115" y1="113.206" x2="176.129" y2="108.071" gradientUnits="userSpaceOnUse">
<stop stop-color="#AB5A46"/>
<stop offset="1" stop-color="#E99682"/>
</linearGradient>
<linearGradient id="paint13_linear_8_278" x1="176.086" y1="115.774" x2="176.102" y2="109.996" gradientUnits="userSpaceOnUse">
<stop stop-color="#AB5A46"/>
<stop offset="1" stop-color="#E99682"/>
</linearGradient>
<linearGradient id="paint14_linear_8_278" x1="176.036" y1="120.909" x2="176.054" y2="114.49" gradientUnits="userSpaceOnUse">
<stop stop-color="#AB5A46"/>
<stop offset="1" stop-color="#E99682"/>
</linearGradient>
<linearGradient id="paint15_linear_8_278" x1="162.92" y1="72.2493" x2="132.041" y2="89.9232" gradientUnits="userSpaceOnUse">
<stop stop-color="#C51092"/>
<stop offset="1" stop-color="#ED7558"/>
</linearGradient>
<linearGradient id="paint16_linear_8_278" x1="189.883" y1="72.2493" x2="220.762" y2="89.9232" gradientUnits="userSpaceOnUse">
<stop stop-color="#C51092"/>
<stop offset="1" stop-color="#ED7558"/>
</linearGradient>
<linearGradient id="paint17_linear_8_278" x1="176.402" y1="0.0296783" x2="176.402" y2="99.5322" gradientUnits="userSpaceOnUse">
<stop stop-color="#EDEFF0"/>
<stop offset="1" stop-color="white"/>
</linearGradient>
<linearGradient id="paint18_linear_8_278" x1="185.068" y1="21.5765" x2="184.669" y2="25.3067" gradientUnits="userSpaceOnUse">
<stop stop-color="#C5103C"/>
<stop offset="1" stop-color="#ED7558"/>
</linearGradient>
<linearGradient id="paint19_linear_8_278" x1="180.255" y1="71.9283" x2="164.785" y2="74.9269" gradientUnits="userSpaceOnUse">
<stop stop-color="#C51092"/>
<stop offset="1" stop-color="#ED7558"/>
</linearGradient>
</defs>
</svg>
